<svg xmlns="http://www.w3.org/2000/svg" version="1.1" xmlns:xlink="http://www.w3.org/1999/xlink" xmlns:svgjs="http://svgjs.dev/svgjs" width="1920" height="1080" preserveAspectRatio="none" viewBox="0 0 1920 1080"><g mask="url(&quot;#SvgjsMask1011&quot;)" fill="none"><path d="M48.25 757.72L93.28 783.72L93.28 835.72L48.25 861.72L3.22 835.72L3.22 783.72zM183.35 835.72L228.39 861.72L228.39 913.72L183.35 939.72L138.32 913.72L138.32 861.72zM273.42 367.72L318.46 393.72L318.46 445.72L273.42 471.72L228.39 445.72L228.39 393.72zM273.42 679.72L318.46 705.72L318.46 757.72L273.42 783.72L228.39 757.72L228.39 705.72zM318.46 445.72L363.49 471.72L363.49 523.72L318.46 549.72L273.42 523.72L273.42 471.72zM408.53 757.72L453.56 783.72L453.56 835.72L408.53 861.72L363.49 835.72L363.49 783.72zM633.7 55.72L678.73 81.72L678.73 133.72L633.7 159.72L588.67 133.72L588.67 81.72zM588.67 913.72L633.7 939.72L633.7 991.72L588.67 1017.72L543.63 991.72L543.63 939.72zM678.73 133.72L723.77 159.72L723.77 211.72L678.73 237.72L633.7 211.72L633.7 159.72zM813.84 679.72L858.87 705.72L858.87 757.72L813.84 783.72L768.8 757.72L768.8 705.72zM858.87 -22.28L903.91 3.72L903.91 55.72L858.87 81.72L813.84 55.72L813.84 3.72zM903.91 211.72L948.94 237.72L948.94 289.72L903.91 315.72L858.87 289.72L858.87 237.72zM903.91 523.72L948.94 549.72L948.94 601.72L903.91 627.72L858.87 601.72L858.87 549.72zM903.91 835.72L948.94 861.72L948.94 913.72L903.91 939.72L858.87 913.72L858.87 861.72zM993.98 55.72L1039.01 81.72L1039.01 133.72L993.98 159.72L948.94 133.72L948.94 81.72zM948.94 445.72L993.98 471.72L993.98 523.72L948.94 549.72L903.91 523.72L903.91 471.72zM1129.08 -22.28L1174.11 3.72L1174.11 55.72L1129.08 81.72L1084.05 55.72L1084.05 3.72zM1129.08 601.72L1174.11 627.72L1174.11 679.72L1129.08 705.72L1084.05 679.72L1084.05 627.72zM1174.11 835.72L1219.15 861.72L1219.15 913.72L1174.11 939.72L1129.08 913.72L1129.08 861.72zM1129.08 1069.72L1174.11 1095.72L1174.11 1147.72L1129.08 1173.72L1084.05 1147.72L1084.05 1095.72zM1264.18 523.72L1309.22 549.72L1309.22 601.72L1264.18 627.72L1219.15 601.72L1219.15 549.72zM1354.25 835.72L1399.29 861.72L1399.29 913.72L1354.25 939.72L1309.22 913.72L1309.22 861.72zM1309.22 913.72L1354.25 939.72L1354.25 991.72L1309.22 1017.72L1264.18 991.72L1264.18 939.72zM1444.32 367.72L1489.36 393.72L1489.36 445.72L1444.32 471.72L1399.29 445.72L1399.29 393.72zM1399.29 445.72L1444.32 471.72L1444.32 523.72L1399.29 549.72L1354.25 523.72L1354.25 471.72zM1579.43 -22.28L1624.46 3.72L1624.46 55.72L1579.43 81.72L1534.39 55.72L1534.39 3.72zM1669.5 289.72L1714.53 315.72L1714.53 367.72L1669.5 393.72L1624.46 367.72L1624.46 315.72zM1714.53 367.72L1759.56 393.72L1759.56 445.72L1714.53 471.72L1669.5 445.72L1669.5 393.72zM1669.5 445.72L1714.53 471.72L1714.53 523.72L1669.5 549.72L1624.46 523.72L1624.46 471.72zM1714.53 835.72L1759.56 861.72L1759.56 913.72L1714.53 939.72L1669.5 913.72L1669.5 861.72zM1804.6 991.72L1849.63 1017.72L1849.63 1069.72L1804.6 1095.72L1759.56 1069.72L1759.56 1017.72zM1849.63 445.72L1894.67 471.72L1894.67 523.72L1849.63 549.72L1804.6 523.72L1804.6 471.72zM1939.7 1069.72L1984.74 1095.72L1984.74 1147.72L1939.7 1173.72L1894.67 1147.72L1894.67 1095.72z" stroke="rgba(75, 75, 75, 1)" stroke-width="2"></path><path d="M43.05 757.72 a5.2 5.2 0 1 0 10.4 0 a5.2 5.2 0 1 0 -10.4 0zM88.08 783.72 a5.2 5.2 0 1 0 10.4 0 a5.2 5.2 0 1 0 -10.4 0zM88.08 835.72 a5.2 5.2 0 1 0 10.4 0 a5.2 5.2 0 1 0 -10.4 0zM43.05 861.72 a5.2 5.2 0 1 0 10.4 0 a5.2 5.2 0 1 0 -10.4 0zM-1.98 835.72 a5.2 5.2 0 1 0 10.4 0 a5.2 5.2 0 1 0 -10.4 0zM-1.98 783.72 a5.2 5.2 0 1 0 10.4 0 a5.2 5.2 0 1 0 -10.4 0zM178.15 835.72 a5.2 5.2 0 1 0 10.4 0 a5.2 5.2 0 1 0 -10.4 0zM223.19 861.72 a5.2 5.2 0 1 0 10.4 0 a5.2 5.2 0 1 0 -10.4 0zM223.19 913.72 a5.2 5.2 0 1 0 10.4 0 a5.2 5.2 0 1 0 -10.4 0zM178.15 939.72 a5.2 5.2 0 1 0 10.4 0 a5.2 5.2 0 1 0 -10.4 0zM133.12 913.72 a5.2 5.2 0 1 0 10.4 0 a5.2 5.2 0 1 0 -10.4 0zM133.12 861.72 a5.2 5.2 0 1 0 10.4 0 a5.2 5.2 0 1 0 -10.4 0zM268.22 367.72 a5.2 5.2 0 1 0 10.4 0 a5.2 5.2 0 1 0 -10.4 0zM313.26 393.72 a5.2 5.2 0 1 0 10.4 0 a5.2 5.2 0 1 0 -10.4 0zM313.26 445.72 a5.2 5.2 0 1 0 10.4 0 a5.2 5.2 0 1 0 -10.4 0zM268.22 471.72 a5.2 5.2 0 1 0 10.4 0 a5.2 5.2 0 1 0 -10.4 0zM223.19 445.72 a5.2 5.2 0 1 0 10.4 0 a5.2 5.2 0 1 0 -10.4 0zM223.19 393.72 a5.2 5.2 0 1 0 10.4 0 a5.2 5.2 0 1 0 -10.4 0zM268.22 679.72 a5.2 5.2 0 1 0 10.4 0 a5.2 5.2 0 1 0 -10.4 0zM313.26 705.72 a5.2 5.2 0 1 0 10.4 0 a5.2 5.2 0 1 0 -10.4 0zM313.26 757.72 a5.2 5.2 0 1 0 10.4 0 a5.2 5.2 0 1 0 -10.4 0zM268.22 783.72 a5.2 5.2 0 1 0 10.4 0 a5.2 5.2 0 1 0 -10.4 0zM223.19 757.72 a5.2 5.2 0 1 0 10.4 0 a5.2 5.2 0 1 0 -10.4 0zM223.19 705.72 a5.2 5.2 0 1 0 10.4 0 a5.2 5.2 0 1 0 -10.4 0zM358.29 471.72 a5.2 5.2 0 1 0 10.4 0 a5.2 5.2 0 1 0 -10.4 0zM358.29 523.72 a5.2 5.2 0 1 0 10.4 0 a5.2 5.2 0 1 0 -10.4 0zM313.26 549.72 a5.2 5.2 0 1 0 10.4 0 a5.2 5.2 0 1 0 -10.4 0zM268.22 523.72 a5.2 5.2 0 1 0 10.4 0 a5.2 5.2 0 1 0 -10.4 0zM403.33 757.72 a5.2 5.2 0 1 0 10.4 0 a5.2 5.2 0 1 0 -10.4 0zM448.36 783.72 a5.2 5.2 0 1 0 10.4 0 a5.2 5.2 0 1 0 -10.4 0zM448.36 835.72 a5.2 5.2 0 1 0 10.4 0 a5.2 5.2 0 1 0 -10.4 0zM403.33 861.72 a5.2 5.2 0 1 0 10.4 0 a5.2 5.2 0 1 0 -10.4 0zM358.29 835.72 a5.2 5.2 0 1 0 10.4 0 a5.2 5.2 0 1 0 -10.4 0zM358.29 783.72 a5.2 5.2 0 1 0 10.4 0 a5.2 5.2 0 1 0 -10.4 0zM628.5 55.72 a5.2 5.2 0 1 0 10.4 0 a5.2 5.2 0 1 0 -10.4 0zM673.53 81.72 a5.2 5.2 0 1 0 10.4 0 a5.2 5.2 0 1 0 -10.4 0zM673.53 133.72 a5.2 5.2 0 1 0 10.4 0 a5.2 5.2 0 1 0 -10.4 0zM628.5 159.72 a5.2 5.2 0 1 0 10.4 0 a5.2 5.2 0 1 0 -10.4 0zM583.47 133.72 a5.2 5.2 0 1 0 10.4 0 a5.2 5.2 0 1 0 -10.4 0zM583.47 81.72 a5.2 5.2 0 1 0 10.4 0 a5.2 5.2 0 1 0 -10.4 0zM583.47 913.72 a5.2 5.2 0 1 0 10.4 0 a5.2 5.2 0 1 0 -10.4 0zM628.5 939.72 a5.2 5.2 0 1 0 10.4 0 a5.2 5.2 0 1 0 -10.4 0zM628.5 991.72 a5.2 5.2 0 1 0 10.4 0 a5.2 5.2 0 1 0 -10.4 0zM583.47 1017.72 a5.2 5.2 0 1 0 10.4 0 a5.2 5.2 0 1 0 -10.4 0zM538.43 991.72 a5.2 5.2 0 1 0 10.4 0 a5.2 5.2 0 1 0 -10.4 0zM538.43 939.72 a5.2 5.2 0 1 0 10.4 0 a5.2 5.2 0 1 0 -10.4 0zM718.57 159.72 a5.2 5.2 0 1 0 10.4 0 a5.2 5.2 0 1 0 -10.4 0zM718.57 211.72 a5.2 5.2 0 1 0 10.4 0 a5.2 5.2 0 1 0 -10.4 0zM673.53 237.72 a5.2 5.2 0 1 0 10.4 0 a5.2 5.2 0 1 0 -10.4 0zM628.5 211.72 a5.2 5.2 0 1 0 10.4 0 a5.2 5.2 0 1 0 -10.4 0zM808.64 679.72 a5.2 5.2 0 1 0 10.4 0 a5.2 5.2 0 1 0 -10.4 0zM853.67 705.72 a5.2 5.2 0 1 0 10.4 0 a5.2 5.2 0 1 0 -10.4 0zM853.67 757.72 a5.2 5.2 0 1 0 10.4 0 a5.2 5.2 0 1 0 -10.4 0zM808.64 783.72 a5.2 5.2 0 1 0 10.4 0 a5.2 5.2 0 1 0 -10.4 0zM763.6 757.72 a5.2 5.2 0 1 0 10.4 0 a5.2 5.2 0 1 0 -10.4 0zM763.6 705.72 a5.2 5.2 0 1 0 10.4 0 a5.2 5.2 0 1 0 -10.4 0zM853.67 -22.28 a5.2 5.2 0 1 0 10.4 0 a5.2 5.2 0 1 0 -10.4 0zM898.71 3.72 a5.2 5.2 0 1 0 10.4 0 a5.2 5.2 0 1 0 -10.4 0zM898.71 55.72 a5.2 5.2 0 1 0 10.4 0 a5.2 5.2 0 1 0 -10.4 0zM853.67 81.72 a5.2 5.2 0 1 0 10.4 0 a5.2 5.2 0 1 0 -10.4 0zM808.64 55.72 a5.2 5.2 0 1 0 10.4 0 a5.2 5.2 0 1 0 -10.4 0zM808.64 3.72 a5.2 5.2 0 1 0 10.4 0 a5.2 5.2 0 1 0 -10.4 0zM898.71 211.72 a5.2 5.2 0 1 0 10.4 0 a5.2 5.2 0 1 0 -10.4 0zM943.74 237.72 a5.2 5.2 0 1 0 10.4 0 a5.2 5.2 0 1 0 -10.4 0zM943.74 289.72 a5.2 5.2 0 1 0 10.4 0 a5.2 5.2 0 1 0 -10.4 0zM898.71 315.72 a5.2 5.2 0 1 0 10.4 0 a5.2 5.2 0 1 0 -10.4 0zM853.67 289.72 a5.2 5.2 0 1 0 10.4 0 a5.2 5.2 0 1 0 -10.4 0zM853.67 237.72 a5.2 5.2 0 1 0 10.4 0 a5.2 5.2 0 1 0 -10.4 0zM898.71 523.72 a5.2 5.2 0 1 0 10.4 0 a5.2 5.2 0 1 0 -10.4 0zM943.74 549.72 a5.2 5.2 0 1 0 10.4 0 a5.2 5.2 0 1 0 -10.4 0zM943.74 601.72 a5.2 5.2 0 1 0 10.4 0 a5.2 5.2 0 1 0 -10.4 0zM898.71 627.72 a5.2 5.2 0 1 0 10.4 0 a5.2 5.2 0 1 0 -10.4 0zM853.67 601.72 a5.2 5.2 0 1 0 10.4 0 a5.2 5.2 0 1 0 -10.4 0zM853.67 549.72 a5.2 5.2 0 1 0 10.4 0 a5.2 5.2 0 1 0 -10.4 0zM898.71 835.72 a5.2 5.2 0 1 0 10.4 0 a5.2 5.2 0 1 0 -10.4 0zM943.74 861.72 a5.2 5.2 0 1 0 10.4 0 a5.2 5.2 0 1 0 -10.4 0zM943.74 913.72 a5.2 5.2 0 1 0 10.4 0 a5.2 5.2 0 1 0 -10.4 0zM898.71 939.72 a5.2 5.2 0 1 0 10.4 0 a5.2 5.2 0 1 0 -10.4 0zM853.67 913.72 a5.2 5.2 0 1 0 10.4 0 a5.2 5.2 0 1 0 -10.4 0zM853.67 861.72 a5.2 5.2 0 1 0 10.4 0 a5.2 5.2 0 1 0 -10.4 0zM988.78 55.72 a5.2 5.2 0 1 0 10.4 0 a5.2 5.2 0 1 0 -10.4 0zM1033.81 81.72 a5.2 5.2 0 1 0 10.4 0 a5.2 5.2 0 1 0 -10.4 0zM1033.81 133.72 a5.2 5.2 0 1 0 10.4 0 a5.2 5.2 0 1 0 -10.4 0zM988.78 159.72 a5.2 5.2 0 1 0 10.4 0 a5.2 5.2 0 1 0 -10.4 0zM943.74 133.72 a5.2 5.2 0 1 0 10.4 0 a5.2 5.2 0 1 0 -10.4 0zM943.74 81.72 a5.2 5.2 0 1 0 10.4 0 a5.2 5.2 0 1 0 -10.4 0zM943.74 445.72 a5.2 5.2 0 1 0 10.4 0 a5.2 5.2 0 1 0 -10.4 0zM988.78 471.72 a5.2 5.2 0 1 0 10.4 0 a5.2 5.2 0 1 0 -10.4 0zM988.78 523.72 a5.2 5.2 0 1 0 10.4 0 a5.2 5.2 0 1 0 -10.4 0zM898.71 471.72 a5.2 5.2 0 1 0 10.4 0 a5.2 5.2 0 1 0 -10.4 0zM1123.88 -22.28 a5.2 5.2 0 1 0 10.4 0 a5.2 5.2 0 1 0 -10.4 0zM1168.91 3.72 a5.2 5.2 0 1 0 10.4 0 a5.2 5.2 0 1 0 -10.4 0zM1168.91 55.72 a5.2 5.2 0 1 0 10.4 0 a5.2 5.2 0 1 0 -10.4 0zM1123.88 81.72 a5.2 5.2 0 1 0 10.4 0 a5.2 5.2 0 1 0 -10.4 0zM1078.85 55.72 a5.2 5.2 0 1 0 10.4 0 a5.2 5.2 0 1 0 -10.4 0zM1078.85 3.72 a5.2 5.2 0 1 0 10.4 0 a5.2 5.2 0 1 0 -10.4 0zM1123.88 601.72 a5.2 5.2 0 1 0 10.4 0 a5.2 5.2 0 1 0 -10.4 0zM1168.91 627.72 a5.2 5.2 0 1 0 10.4 0 a5.2 5.2 0 1 0 -10.4 0zM1168.91 679.72 a5.2 5.2 0 1 0 10.4 0 a5.2 5.2 0 1 0 -10.4 0zM1123.88 705.72 a5.2 5.2 0 1 0 10.4 0 a5.2 5.2 0 1 0 -10.4 0zM1078.85 679.72 a5.2 5.2 0 1 0 10.4 0 a5.2 5.2 0 1 0 -10.4 0zM1078.85 627.72 a5.2 5.2 0 1 0 10.4 0 a5.2 5.2 0 1 0 -10.4 0zM1168.91 835.72 a5.2 5.2 0 1 0 10.4 0 a5.2 5.2 0 1 0 -10.4 0zM1213.95 861.72 a5.2 5.2 0 1 0 10.4 0 a5.2 5.2 0 1 0 -10.4 0zM1213.95 913.72 a5.2 5.2 0 1 0 10.4 0 a5.2 5.2 0 1 0 -10.4 0zM1168.91 939.72 a5.2 5.2 0 1 0 10.4 0 a5.2 5.2 0 1 0 -10.4 0zM1123.88 913.72 a5.2 5.2 0 1 0 10.4 0 a5.2 5.2 0 1 0 -10.4 0zM1123.88 861.72 a5.2 5.2 0 1 0 10.4 0 a5.2 5.2 0 1 0 -10.4 0zM1123.88 1069.72 a5.2 5.2 0 1 0 10.4 0 a5.2 5.2 0 1 0 -10.4 0zM1168.91 1095.72 a5.2 5.2 0 1 0 10.4 0 a5.2 5.2 0 1 0 -10.4 0zM1168.91 1147.72 a5.2 5.2 0 1 0 10.4 0 a5.2 5.2 0 1 0 -10.4 0zM1123.88 1173.72 a5.2 5.2 0 1 0 10.4 0 a5.2 5.2 0 1 0 -10.4 0zM1078.85 1147.72 a5.2 5.2 0 1 0 10.4 0 a5.2 5.2 0 1 0 -10.4 0zM1078.85 1095.72 a5.2 5.2 0 1 0 10.4 0 a5.2 5.2 0 1 0 -10.4 0zM1258.98 523.72 a5.2 5.2 0 1 0 10.4 0 a5.2 5.2 0 1 0 -10.4 0zM1304.02 549.72 a5.2 5.2 0 1 0 10.4 0 a5.2 5.2 0 1 0 -10.4 0zM1304.02 601.72 a5.2 5.2 0 1 0 10.4 0 a5.2 5.2 0 1 0 -10.4 0zM1258.98 627.72 a5.2 5.2 0 1 0 10.4 0 a5.2 5.2 0 1 0 -10.4 0zM1213.95 601.72 a5.2 5.2 0 1 0 10.4 0 a5.2 5.2 0 1 0 -10.4 0zM1213.95 549.72 a5.2 5.2 0 1 0 10.4 0 a5.2 5.2 0 1 0 -10.4 0zM1349.05 835.72 a5.2 5.2 0 1 0 10.4 0 a5.2 5.2 0 1 0 -10.4 0zM1394.09 861.72 a5.2 5.2 0 1 0 10.4 0 a5.2 5.2 0 1 0 -10.4 0zM1394.09 913.72 a5.2 5.2 0 1 0 10.4 0 a5.2 5.2 0 1 0 -10.4 0zM1349.05 939.72 a5.2 5.2 0 1 0 10.4 0 a5.2 5.2 0 1 0 -10.4 0zM1304.02 913.72 a5.2 5.2 0 1 0 10.4 0 a5.2 5.2 0 1 0 -10.4 0zM1304.02 861.72 a5.2 5.2 0 1 0 10.4 0 a5.2 5.2 0 1 0 -10.4 0zM1349.05 991.72 a5.2 5.2 0 1 0 10.4 0 a5.2 5.2 0 1 0 -10.4 0zM1304.02 1017.72 a5.2 5.2 0 1 0 10.4 0 a5.2 5.2 0 1 0 -10.4 0zM1258.98 991.72 a5.2 5.2 0 1 0 10.4 0 a5.2 5.2 0 1 0 -10.4 0zM1258.98 939.72 a5.2 5.2 0 1 0 10.4 0 a5.2 5.2 0 1 0 -10.4 0zM1439.12 367.72 a5.2 5.2 0 1 0 10.4 0 a5.2 5.2 0 1 0 -10.4 0zM1484.16 393.72 a5.2 5.2 0 1 0 10.4 0 a5.2 5.2 0 1 0 -10.4 0zM1484.16 445.72 a5.2 5.2 0 1 0 10.4 0 a5.2 5.2 0 1 0 -10.4 0zM1439.12 471.72 a5.2 5.2 0 1 0 10.4 0 a5.2 5.2 0 1 0 -10.4 0zM1394.09 445.72 a5.2 5.2 0 1 0 10.4 0 a5.2 5.2 0 1 0 -10.4 0zM1394.09 393.72 a5.2 5.2 0 1 0 10.4 0 a5.2 5.2 0 1 0 -10.4 0zM1439.12 523.72 a5.2 5.2 0 1 0 10.4 0 a5.2 5.2 0 1 0 -10.4 0zM1394.09 549.72 a5.2 5.2 0 1 0 10.4 0 a5.2 5.2 0 1 0 -10.4 0zM1349.05 523.72 a5.2 5.2 0 1 0 10.4 0 a5.2 5.2 0 1 0 -10.4 0zM1349.05 471.72 a5.2 5.2 0 1 0 10.4 0 a5.2 5.2 0 1 0 -10.4 0zM1574.23 -22.28 a5.2 5.2 0 1 0 10.4 0 a5.2 5.2 0 1 0 -10.4 0zM1619.26 3.72 a5.2 5.2 0 1 0 10.4 0 a5.2 5.2 0 1 0 -10.4 0zM1619.26 55.72 a5.2 5.2 0 1 0 10.4 0 a5.2 5.2 0 1 0 -10.4 0zM1574.23 81.72 a5.2 5.2 0 1 0 10.4 0 a5.2 5.2 0 1 0 -10.4 0zM1529.19 55.72 a5.2 5.2 0 1 0 10.4 0 a5.2 5.2 0 1 0 -10.4 0zM1529.19 3.72 a5.2 5.2 0 1 0 10.4 0 a5.2 5.2 0 1 0 -10.4 0zM1664.3 289.72 a5.2 5.2 0 1 0 10.4 0 a5.2 5.2 0 1 0 -10.4 0zM1709.33 315.72 a5.2 5.2 0 1 0 10.4 0 a5.2 5.2 0 1 0 -10.4 0zM1709.33 367.72 a5.2 5.2 0 1 0 10.4 0 a5.2 5.2 0 1 0 -10.4 0zM1664.3 393.72 a5.2 5.2 0 1 0 10.4 0 a5.2 5.2 0 1 0 -10.4 0zM1619.26 367.72 a5.2 5.2 0 1 0 10.4 0 a5.2 5.2 0 1 0 -10.4 0zM1619.26 315.72 a5.2 5.2 0 1 0 10.4 0 a5.2 5.2 0 1 0 -10.4 0zM1754.36 393.72 a5.2 5.2 0 1 0 10.4 0 a5.2 5.2 0 1 0 -10.4 0zM1754.36 445.72 a5.2 5.2 0 1 0 10.4 0 a5.2 5.2 0 1 0 -10.4 0zM1709.33 471.72 a5.2 5.2 0 1 0 10.4 0 a5.2 5.2 0 1 0 -10.4 0zM1664.3 445.72 a5.2 5.2 0 1 0 10.4 0 a5.2 5.2 0 1 0 -10.4 0zM1709.33 523.72 a5.2 5.2 0 1 0 10.4 0 a5.2 5.2 0 1 0 -10.4 0zM1664.3 549.72 a5.2 5.2 0 1 0 10.4 0 a5.2 5.2 0 1 0 -10.4 0zM1619.26 523.72 a5.2 5.2 0 1 0 10.4 0 a5.2 5.2 0 1 0 -10.4 0zM1619.26 471.72 a5.2 5.2 0 1 0 10.4 0 a5.2 5.2 0 1 0 -10.4 0zM1709.33 835.72 a5.2 5.2 0 1 0 10.4 0 a5.2 5.2 0 1 0 -10.4 0zM1754.36 861.72 a5.2 5.2 0 1 0 10.4 0 a5.2 5.2 0 1 0 -10.4 0zM1754.36 913.72 a5.2 5.2 0 1 0 10.4 0 a5.2 5.2 0 1 0 -10.4 0zM1709.33 939.72 a5.2 5.2 0 1 0 10.4 0 a5.2 5.2 0 1 0 -10.4 0zM1664.3 913.72 a5.2 5.2 0 1 0 10.4 0 a5.2 5.2 0 1 0 -10.4 0zM1664.3 861.72 a5.2 5.2 0 1 0 10.4 0 a5.2 5.2 0 1 0 -10.4 0zM1799.4 991.72 a5.2 5.2 0 1 0 10.4 0 a5.2 5.2 0 1 0 -10.4 0zM1844.43 1017.72 a5.2 5.2 0 1 0 10.4 0 a5.2 5.2 0 1 0 -10.4 0zM1844.43 1069.72 a5.2 5.2 0 1 0 10.4 0 a5.2 5.2 0 1 0 -10.4 0zM1799.4 1095.72 a5.2 5.2 0 1 0 10.4 0 a5.2 5.2 0 1 0 -10.4 0zM1754.36 1069.72 a5.2 5.2 0 1 0 10.4 0 a5.2 5.2 0 1 0 -10.4 0zM1754.36 1017.72 a5.2 5.2 0 1 0 10.4 0 a5.2 5.2 0 1 0 -10.4 0zM1844.43 445.72 a5.2 5.2 0 1 0 10.4 0 a5.2 5.2 0 1 0 -10.4 0zM1889.47 471.72 a5.2 5.2 0 1 0 10.4 0 a5.2 5.2 0 1 0 -10.4 0zM1889.47 523.72 a5.2 5.2 0 1 0 10.4 0 a5.2 5.2 0 1 0 -10.4 0zM1844.43 549.72 a5.2 5.2 0 1 0 10.4 0 a5.2 5.2 0 1 0 -10.4 0zM1799.4 523.72 a5.2 5.2 0 1 0 10.4 0 a5.2 5.2 0 1 0 -10.4 0zM1799.4 471.72 a5.2 5.2 0 1 0 10.4 0 a5.2 5.2 0 1 0 -10.4 0zM1934.5 1069.72 a5.2 5.2 0 1 0 10.4 0 a5.2 5.2 0 1 0 -10.4 0zM1979.54 1095.72 a5.2 5.2 0 1 0 10.4 0 a5.2 5.2 0 1 0 -10.4 0zM1979.54 1147.72 a5.2 5.2 0 1 0 10.4 0 a5.2 5.2 0 1 0 -10.4 0zM1934.5 1173.72 a5.2 5.2 0 1 0 10.4 0 a5.2 5.2 0 1 0 -10.4 0zM1889.47 1147.72 a5.2 5.2 0 1 0 10.4 0 a5.2 5.2 0 1 0 -10.4 0zM1889.47 1095.72 a5.2 5.2 0 1 0 10.4 0 a5.2 5.2 0 1 0 -10.4 0z" fill="rgba(75, 75, 75, 1)"></path><path d="M15.63 -16.22L40.75 -1.72L40.75 27.28L15.63 41.78L-9.49 27.28L-9.49 -1.72zM40.75 201.28L65.86 215.78L65.86 244.78L40.75 259.28L15.63 244.78L15.63 215.78zM40.75 288.28L65.86 302.78L65.86 331.78L40.75 346.28L15.63 331.78L15.63 302.78zM15.63 331.78L40.75 346.28L40.75 375.28L15.63 389.78L-9.49 375.28L-9.49 346.28zM15.63 418.78L40.75 433.28L40.75 462.28L15.63 476.78L-9.49 462.28L-9.49 433.28zM15.63 505.78L40.75 520.28L40.75 549.28L15.63 563.78L-9.49 549.28L-9.49 520.28zM40.75 549.28L65.86 563.78L65.86 592.78L40.75 607.28L15.63 592.78L15.63 563.78zM15.63 592.78L40.75 607.28L40.75 636.28L15.63 650.78L-9.49 636.28L-9.49 607.28zM15.63 766.78L40.75 781.28L40.75 810.28L15.63 824.78L-9.49 810.28L-9.49 781.28zM15.63 853.78L40.75 868.28L40.75 897.28L15.63 911.78L-9.49 897.28L-9.49 868.28zM40.75 897.28L65.86 911.78L65.86 940.78L40.75 955.28L15.63 940.78L15.63 911.78zM15.63 940.78L40.75 955.28L40.75 984.28L15.63 998.78L-9.49 984.28L-9.49 955.28zM40.75 984.28L65.86 998.78L65.86 1027.78L40.75 1042.28L15.63 1027.78L15.63 998.78zM15.63 1027.78L40.75 1042.28L40.75 1071.28L15.63 1085.78L-9.49 1071.28L-9.49 1042.28zM65.86 -16.22L90.98 -1.72L90.98 27.28L65.86 41.78L40.75 27.28L40.75 -1.72zM65.86 70.78L90.98 85.28L90.98 114.28L65.86 128.78L40.75 114.28L40.75 85.28zM65.86 157.78L90.98 172.28L90.98 201.28L65.86 215.78L40.75 201.28L40.75 172.28zM90.98 375.28L116.09 389.78L116.09 418.78L90.98 433.28L65.86 418.78L65.86 389.78zM65.86 418.78L90.98 433.28L90.98 462.28L65.86 476.78L40.75 462.28L40.75 433.28zM65.86 505.78L90.98 520.28L90.98 549.28L65.86 563.78L40.75 549.28L40.75 520.28zM90.98 897.28L116.09 911.78L116.09 940.78L90.98 955.28L65.86 940.78L65.86 911.78zM90.98 984.28L116.09 998.78L116.09 1027.78L90.98 1042.28L65.86 1027.78L65.86 998.78zM141.21 27.28L166.32 41.78L166.32 70.78L141.21 85.28L116.09 70.78L116.09 41.78zM116.09 70.78L141.21 85.28L141.21 114.28L116.09 128.78L90.98 114.28L90.98 85.28zM141.21 114.28L166.32 128.78L166.32 157.78L141.21 172.28L116.09 157.78L116.09 128.78zM141.21 201.28L166.32 215.78L166.32 244.78L141.21 259.28L116.09 244.78L116.09 215.78zM141.21 288.28L166.32 302.78L166.32 331.78L141.21 346.28L116.09 331.78L116.09 302.78zM141.21 375.28L166.32 389.78L166.32 418.78L141.21 433.28L116.09 418.78L116.09 389.78zM116.09 592.78L141.21 607.28L141.21 636.28L116.09 650.78L90.98 636.28L90.98 607.28zM116.09 679.78L141.21 694.28L141.21 723.28L116.09 737.78L90.98 723.28L90.98 694.28zM141.21 810.28L166.32 824.78L166.32 853.78L141.21 868.28L116.09 853.78L116.09 824.78zM141.21 897.28L166.32 911.78L166.32 940.78L141.21 955.28L116.09 940.78L116.09 911.78zM166.32 70.78L191.44 85.28L191.44 114.28L166.32 128.78L141.21 114.28L141.21 85.28zM191.44 114.28L216.55 128.78L216.55 157.78L191.44 172.28L166.32 157.78L166.32 128.78zM166.32 244.78L191.44 259.28L191.44 288.28L166.32 302.78L141.21 288.28L141.21 259.28zM191.44 288.28L216.55 302.78L216.55 331.78L191.44 346.28L166.32 331.78L166.32 302.78zM166.32 418.78L191.44 433.28L191.44 462.28L166.32 476.78L141.21 462.28L141.21 433.28zM191.44 462.28L216.55 476.78L216.55 505.78L191.44 520.28L166.32 505.78L166.32 476.78zM166.32 679.78L191.44 694.28L191.44 723.28L166.32 737.78L141.21 723.28L141.21 694.28zM166.32 766.78L191.44 781.28L191.44 810.28L166.32 824.78L141.21 810.28L141.21 781.28zM191.44 1071.28L216.55 1085.78L216.55 1114.78L191.44 1129.28L166.32 1114.78L166.32 1085.78zM216.55 70.78L241.67 85.28L241.67 114.28L216.55 128.78L191.44 114.28L191.44 85.28zM241.67 114.28L266.78 128.78L266.78 157.78L241.67 172.28L216.55 157.78L216.55 128.78zM216.55 157.78L241.67 172.28L241.67 201.28L216.55 215.78L191.44 201.28L191.44 172.28zM216.55 244.78L241.67 259.28L241.67 288.28L216.55 302.78L191.44 288.28L191.44 259.28zM241.67 288.28L266.78 302.78L266.78 331.78L241.67 346.28L216.55 331.78L216.55 302.78zM216.55 331.78L241.67 346.28L241.67 375.28L216.55 389.78L191.44 375.28L191.44 346.28zM241.67 375.28L266.78 389.78L266.78 418.78L241.67 433.28L216.55 418.78L216.55 389.78zM241.67 462.28L266.78 476.78L266.78 505.78L241.67 520.28L216.55 505.78L216.55 476.78zM216.55 505.78L241.67 520.28L241.67 549.28L216.55 563.78L191.44 549.28L191.44 520.28zM216.55 592.78L241.67 607.28L241.67 636.28L216.55 650.78L191.44 636.28L191.44 607.28zM216.55 679.78L241.67 694.28L241.67 723.28L216.55 737.78L191.44 723.28L191.44 694.28zM241.67 897.28L266.78 911.78L266.78 940.78L241.67 955.28L216.55 940.78L216.55 911.78zM216.55 940.78L241.67 955.28L241.67 984.28L216.55 998.78L191.44 984.28L191.44 955.28zM241.67 984.28L266.78 998.78L266.78 1027.78L241.67 1042.28L216.55 1027.78L216.55 998.78zM216.55 1027.78L241.67 1042.28L241.67 1071.28L216.55 1085.78L191.44 1071.28L191.44 1042.28zM266.78 -16.22L291.9 -1.72L291.9 27.28L266.78 41.78L241.67 27.28L241.67 -1.72zM291.9 27.28L317.02 41.78L317.02 70.78L291.9 85.28L266.78 70.78L266.78 41.78zM291.9 114.28L317.02 128.78L317.02 157.78L291.9 172.28L266.78 157.78L266.78 128.78zM266.78 244.78L291.9 259.28L291.9 288.28L266.78 302.78L241.67 288.28L241.67 259.28zM291.9 375.28L317.02 389.78L317.02 418.78L291.9 433.28L266.78 418.78L266.78 389.78zM266.78 418.78L291.9 433.28L291.9 462.28L266.78 476.78L241.67 462.28L241.67 433.28zM291.9 549.28L317.02 563.78L317.02 592.78L291.9 607.28L266.78 592.78L266.78 563.78zM266.78 592.78L291.9 607.28L291.9 636.28L266.78 650.78L241.67 636.28L241.67 607.28zM291.9 636.28L317.02 650.78L317.02 679.78L291.9 694.28L266.78 679.78L266.78 650.78zM266.78 679.78L291.9 694.28L291.9 723.28L266.78 737.78L241.67 723.28L241.67 694.28zM291.9 810.28L317.02 824.78L317.02 853.78L291.9 868.28L266.78 853.78L266.78 824.78zM266.78 853.78L291.9 868.28L291.9 897.28L266.78 911.78L241.67 897.28L241.67 868.28zM266.78 940.78L291.9 955.28L291.9 984.28L266.78 998.78L241.67 984.28L241.67 955.28zM291.9 984.28L317.02 998.78L317.02 1027.78L291.9 1042.28L266.78 1027.78L266.78 998.78zM266.78 1027.78L291.9 1042.28L291.9 1071.28L266.78 1085.78L241.67 1071.28L241.67 1042.28zM342.13 27.28L367.25 41.78L367.25 70.78L342.13 85.28L317.02 70.78L317.02 41.78zM317.02 70.78L342.13 85.28L342.13 114.28L317.02 128.78L291.9 114.28L291.9 85.28zM317.02 157.78L342.13 172.28L342.13 201.28L317.02 215.78L291.9 201.28L291.9 172.28zM342.13 288.28L367.25 302.78L367.25 331.78L342.13 346.28L317.02 331.78L317.02 302.78zM317.02 505.78L342.13 520.28L342.13 549.28L317.02 563.78L291.9 549.28L291.9 520.28zM342.13 723.28L367.25 737.78L367.25 766.78L342.13 781.28L317.02 766.78L317.02 737.78zM317.02 766.78L342.13 781.28L342.13 810.28L317.02 824.78L291.9 810.28L291.9 781.28zM342.13 810.28L367.25 824.78L367.25 853.78L342.13 868.28L317.02 853.78L317.02 824.78zM342.13 897.28L367.25 911.78L367.25 940.78L342.13 955.28L317.02 940.78L317.02 911.78zM342.13 984.28L367.25 998.78L367.25 1027.78L342.13 1042.28L317.02 1027.78L317.02 998.78zM342.13 1071.28L367.25 1085.78L367.25 1114.78L342.13 1129.28L317.02 1114.78L317.02 1085.78zM392.36 27.28L417.48 41.78L417.48 70.78L392.36 85.28L367.25 70.78L367.25 41.78zM367.25 157.78L392.36 172.28L392.36 201.28L367.25 215.78L342.13 201.28L342.13 172.28zM392.36 201.28L417.48 215.78L417.48 244.78L392.36 259.28L367.25 244.78L367.25 215.78zM392.36 288.28L417.48 302.78L417.48 331.78L392.36 346.28L367.25 331.78L367.25 302.78zM367.25 331.78L392.36 346.28L392.36 375.28L367.25 389.78L342.13 375.28L342.13 346.28zM392.36 375.28L417.48 389.78L417.48 418.78L392.36 433.28L367.25 418.78L367.25 389.78zM392.36 549.28L417.48 563.78L417.48 592.78L392.36 607.28L367.25 592.78L367.25 563.78zM367.25 592.78L392.36 607.28L392.36 636.28L367.25 650.78L342.13 636.28L342.13 607.28zM392.36 636.28L417.48 650.78L417.48 679.78L392.36 694.28L367.25 679.78L367.25 650.78zM367.25 766.78L392.36 781.28L392.36 810.28L367.25 824.78L342.13 810.28L342.13 781.28zM392.36 810.28L417.48 824.78L417.48 853.78L392.36 868.28L367.25 853.78L367.25 824.78zM367.25 940.78L392.36 955.28L392.36 984.28L367.25 998.78L342.13 984.28L342.13 955.28zM392.36 984.28L417.48 998.78L417.48 1027.78L392.36 1042.28L367.25 1027.78L367.25 998.78zM367.25 1027.78L392.36 1042.28L392.36 1071.28L367.25 1085.78L342.13 1071.28L342.13 1042.28zM417.48 -16.22L442.59 -1.72L442.59 27.28L417.48 41.78L392.36 27.28L392.36 -1.72zM417.48 70.78L442.59 85.28L442.59 114.28L417.48 128.78L392.36 114.28L392.36 85.28zM442.59 201.28L467.71 215.78L467.71 244.78L442.59 259.28L417.48 244.78L417.48 215.78zM417.48 244.78L442.59 259.28L442.59 288.28L417.48 302.78L392.36 288.28L392.36 259.28zM442.59 288.28L467.71 302.78L467.71 331.78L442.59 346.28L417.48 331.78L417.48 302.78zM417.48 418.78L442.59 433.28L442.59 462.28L417.48 476.78L392.36 462.28L392.36 433.28zM417.48 679.78L442.59 694.28L442.59 723.28L417.48 737.78L392.36 723.28L392.36 694.28zM417.48 766.78L442.59 781.28L442.59 810.28L417.48 824.78L392.36 810.28L392.36 781.28zM442.59 897.28L467.71 911.78L467.71 940.78L442.59 955.28L417.48 940.78L417.48 911.78zM467.71 -16.22L492.82 -1.72L492.82 27.28L467.71 41.78L442.59 27.28L442.59 -1.72zM492.82 462.28L517.94 476.78L517.94 505.78L492.82 520.28L467.71 505.78L467.71 476.78zM467.71 505.78L492.82 520.28L492.82 549.28L467.71 563.78L442.59 549.28L442.59 520.28zM492.82 549.28L517.94 563.78L517.94 592.78L492.82 607.28L467.71 592.78L467.71 563.78zM467.71 592.78L492.82 607.28L492.82 636.28L467.71 650.78L442.59 636.28L442.59 607.28zM492.82 636.28L517.94 650.78L517.94 679.78L492.82 694.28L467.71 679.78L467.71 650.78zM492.82 723.28L517.94 737.78L517.94 766.78L492.82 781.28L467.71 766.78L467.71 737.78zM492.82 810.28L517.94 824.78L517.94 853.78L492.82 868.28L467.71 853.78L467.71 824.78zM467.71 940.78L492.82 955.28L492.82 984.28L467.71 998.78L442.59 984.28L442.59 955.28zM467.71 1027.78L492.82 1042.28L492.82 1071.28L467.71 1085.78L442.59 1071.28L442.59 1042.28zM492.82 1071.28L517.94 1085.78L517.94 1114.78L492.82 1129.28L467.71 1114.78L467.71 1085.78zM543.05 27.28L568.17 41.78L568.17 70.78L543.05 85.28L517.94 70.78L517.94 41.78zM517.94 70.78L543.05 85.28L543.05 114.28L517.94 128.78L492.82 114.28L492.82 85.28zM543.05 114.28L568.17 128.78L568.17 157.78L543.05 172.28L517.94 157.78L517.94 128.78zM517.94 157.78L543.05 172.28L543.05 201.28L517.94 215.78L492.82 201.28L492.82 172.28zM517.94 244.78L543.05 259.28L543.05 288.28L517.94 302.78L492.82 288.28L492.82 259.28zM543.05 288.28L568.17 302.78L568.17 331.78L543.05 346.28L517.94 331.78L517.94 302.78zM517.94 331.78L543.05 346.28L543.05 375.28L517.94 389.78L492.82 375.28L492.82 346.28zM543.05 462.28L568.17 476.78L568.17 505.78L543.05 520.28L517.94 505.78L517.94 476.78zM517.94 505.78L543.05 520.28L543.05 549.28L517.94 563.78L492.82 549.28L492.82 520.28zM543.05 549.28L568.17 563.78L568.17 592.78L543.05 607.28L517.94 592.78L517.94 563.78zM517.94 592.78L543.05 607.28L543.05 636.28L517.94 650.78L492.82 636.28L492.82 607.28zM517.94 679.78L543.05 694.28L543.05 723.28L517.94 737.78L492.82 723.28L492.82 694.28zM543.05 723.28L568.17 737.78L568.17 766.78L543.05 781.28L517.94 766.78L517.94 737.78zM543.05 810.28L568.17 824.78L568.17 853.78L543.05 868.28L517.94 853.78L517.94 824.78zM543.05 1071.28L568.17 1085.78L568.17 1114.78L543.05 1129.28L517.94 1114.78L517.94 1085.78zM568.17 70.78L593.29 85.28L593.29 114.28L568.17 128.78L543.05 114.28L543.05 85.28zM593.29 114.28L618.4 128.78L618.4 157.78L593.29 172.28L568.17 157.78L568.17 128.78zM568.17 157.78L593.29 172.28L593.29 201.28L568.17 215.78L543.05 201.28L543.05 172.28zM568.17 418.78L593.29 433.28L593.29 462.28L568.17 476.78L543.05 462.28L543.05 433.28zM593.29 549.28L618.4 563.78L618.4 592.78L593.29 607.28L568.17 592.78L568.17 563.78zM593.29 636.28L618.4 650.78L618.4 679.78L593.29 694.28L568.17 679.78L568.17 650.78zM593.29 810.28L618.4 824.78L618.4 853.78L593.29 868.28L568.17 853.78L568.17 824.78zM568.17 853.78L593.29 868.28L593.29 897.28L568.17 911.78L543.05 897.28L543.05 868.28zM593.29 897.28L618.4 911.78L618.4 940.78L593.29 955.28L568.17 940.78L568.17 911.78zM568.17 940.78L593.29 955.28L593.29 984.28L568.17 998.78L543.05 984.28L543.05 955.28zM593.29 984.28L618.4 998.78L618.4 1027.78L593.29 1042.28L568.17 1027.78L568.17 998.78zM568.17 1027.78L593.29 1042.28L593.29 1071.28L568.17 1085.78L543.05 1071.28L543.05 1042.28zM593.29 1071.28L618.4 1085.78L618.4 1114.78L593.29 1129.28L568.17 1114.78L568.17 1085.78zM618.4 70.78L643.52 85.28L643.52 114.28L618.4 128.78L593.29 114.28L593.29 85.28zM618.4 244.78L643.52 259.28L643.52 288.28L618.4 302.78L593.29 288.28L593.29 259.28zM643.52 288.28L668.63 302.78L668.63 331.78L643.52 346.28L618.4 331.78L618.4 302.78zM618.4 418.78L643.52 433.28L643.52 462.28L618.4 476.78L593.29 462.28L593.29 433.28zM643.52 462.28L668.63 476.78L668.63 505.78L643.52 520.28L618.4 505.78L618.4 476.78zM643.52 723.28L668.63 737.78L668.63 766.78L643.52 781.28L618.4 766.78L618.4 737.78zM643.52 810.28L668.63 824.78L668.63 853.78L643.52 868.28L618.4 853.78L618.4 824.78zM643.52 984.28L668.63 998.78L668.63 1027.78L643.52 1042.28L618.4 1027.78L618.4 998.78zM668.63 -16.22L693.75 -1.72L693.75 27.28L668.63 41.78L643.52 27.28L643.52 -1.72zM668.63 70.78L693.75 85.28L693.75 114.28L668.63 128.78L643.52 114.28L643.52 85.28zM693.75 114.28L718.86 128.78L718.86 157.78L693.75 172.28L668.63 157.78L668.63 128.78zM668.63 157.78L693.75 172.28L693.75 201.28L668.63 215.78L643.52 201.28L643.52 172.28zM693.75 201.28L718.86 215.78L718.86 244.78L693.75 259.28L668.63 244.78L668.63 215.78zM668.63 244.78L693.75 259.28L693.75 288.28L668.63 302.78L643.52 288.28L643.52 259.28zM693.75 288.28L718.86 302.78L718.86 331.78L693.75 346.28L668.63 331.78L668.63 302.78zM668.63 505.78L693.75 520.28L693.75 549.28L668.63 563.78L643.52 549.28L643.52 520.28zM668.63 766.78L693.75 781.28L693.75 810.28L668.63 824.78L643.52 810.28L643.52 781.28zM693.75 897.28L718.86 911.78L718.86 940.78L693.75 955.28L668.63 940.78L668.63 911.78zM693.75 984.28L718.86 998.78L718.86 1027.78L693.75 1042.28L668.63 1027.78L668.63 998.78zM668.63 1027.78L693.75 1042.28L693.75 1071.28L668.63 1085.78L643.52 1071.28L643.52 1042.28zM693.75 1071.28L718.86 1085.78L718.86 1114.78L693.75 1129.28L668.63 1114.78L668.63 1085.78zM718.86 70.78L743.98 85.28L743.98 114.28L718.86 128.78L693.75 114.28L693.75 85.28zM718.86 244.78L743.98 259.28L743.98 288.28L718.86 302.78L693.75 288.28L693.75 259.28zM743.98 462.28L769.09 476.78L769.09 505.78L743.98 520.28L718.86 505.78L718.86 476.78zM743.98 549.28L769.09 563.78L769.09 592.78L743.98 607.28L718.86 592.78L718.86 563.78zM718.86 679.78L743.98 694.28L743.98 723.28L718.86 737.78L693.75 723.28L693.75 694.28zM743.98 723.28L769.09 737.78L769.09 766.78L743.98 781.28L718.86 766.78L718.86 737.78zM743.98 810.28L769.09 824.78L769.09 853.78L743.98 868.28L718.86 853.78L718.86 824.78zM743.98 897.28L769.09 911.78L769.09 940.78L743.98 955.28L718.86 940.78L718.86 911.78zM718.86 1027.78L743.98 1042.28L743.98 1071.28L718.86 1085.78L693.75 1071.28L693.75 1042.28zM769.09 70.78L794.21 85.28L794.21 114.28L769.09 128.78L743.98 114.28L743.98 85.28zM794.21 201.28L819.32 215.78L819.32 244.78L794.21 259.28L769.09 244.78L769.09 215.78zM769.09 244.78L794.21 259.28L794.21 288.28L769.09 302.78L743.98 288.28L743.98 259.28zM794.21 288.28L819.32 302.78L819.32 331.78L794.21 346.28L769.09 331.78L769.09 302.78zM769.09 331.78L794.21 346.28L794.21 375.28L769.09 389.78L743.98 375.28L743.98 346.28zM769.09 592.78L794.21 607.28L794.21 636.28L769.09 650.78L743.98 636.28L743.98 607.28zM794.21 636.28L819.32 650.78L819.32 679.78L794.21 694.28L769.09 679.78L769.09 650.78zM769.09 679.78L794.21 694.28L794.21 723.28L769.09 737.78L743.98 723.28L743.98 694.28zM794.21 810.28L819.32 824.78L819.32 853.78L794.21 868.28L769.09 853.78L769.09 824.78zM769.09 853.78L794.21 868.28L794.21 897.28L769.09 911.78L743.98 897.28L743.98 868.28zM769.09 940.78L794.21 955.28L794.21 984.28L769.09 998.78L743.98 984.28L743.98 955.28zM769.09 1027.78L794.21 1042.28L794.21 1071.28L769.09 1085.78L743.98 1071.28L743.98 1042.28zM794.21 1071.28L819.32 1085.78L819.32 1114.78L794.21 1129.28L769.09 1114.78L769.09 1085.78zM819.32 -16.22L844.44 -1.72L844.44 27.28L819.32 41.78L794.21 27.28L794.21 -1.72zM844.44 27.28L869.56 41.78L869.56 70.78L844.44 85.28L819.32 70.78L819.32 41.78zM844.44 375.28L869.56 389.78L869.56 418.78L844.44 433.28L819.32 418.78L819.32 389.78zM819.32 679.78L844.44 694.28L844.44 723.28L819.32 737.78L794.21 723.28L794.21 694.28zM819.32 766.78L844.44 781.28L844.44 810.28L819.32 824.78L794.21 810.28L794.21 781.28zM844.44 810.28L869.56 824.78L869.56 853.78L844.44 868.28L819.32 853.78L819.32 824.78zM819.32 853.78L844.44 868.28L844.44 897.28L819.32 911.78L794.21 897.28L794.21 868.28zM819.32 940.78L844.44 955.28L844.44 984.28L819.32 998.78L794.21 984.28L794.21 955.28zM844.44 984.28L869.56 998.78L869.56 1027.78L844.44 1042.28L819.32 1027.78L819.32 998.78zM819.32 1027.78L844.44 1042.28L844.44 1071.28L819.32 1085.78L794.21 1071.28L794.21 1042.28zM869.56 -16.22L894.67 -1.72L894.67 27.28L869.56 41.78L844.44 27.28L844.44 -1.72zM894.67 27.28L919.79 41.78L919.79 70.78L894.67 85.28L869.56 70.78L869.56 41.78zM894.67 114.28L919.79 128.78L919.79 157.78L894.67 172.28L869.56 157.78L869.56 128.78zM894.67 375.28L919.79 389.78L919.79 418.78L894.67 433.28L869.56 418.78L869.56 389.78zM869.56 418.78L894.67 433.28L894.67 462.28L869.56 476.78L844.44 462.28L844.44 433.28zM894.67 462.28L919.79 476.78L919.79 505.78L894.67 520.28L869.56 505.78L869.56 476.78zM894.67 549.28L919.79 563.78L919.79 592.78L894.67 607.28L869.56 592.78L869.56 563.78zM894.67 636.28L919.79 650.78L919.79 679.78L894.67 694.28L869.56 679.78L869.56 650.78zM869.56 766.78L894.67 781.28L894.67 810.28L869.56 824.78L844.44 810.28L844.44 781.28zM894.67 810.28L919.79 824.78L919.79 853.78L894.67 868.28L869.56 853.78L869.56 824.78zM869.56 940.78L894.67 955.28L894.67 984.28L869.56 998.78L844.44 984.28L844.44 955.28zM894.67 984.28L919.79 998.78L919.79 1027.78L894.67 1042.28L869.56 1027.78L869.56 998.78zM869.56 1027.78L894.67 1042.28L894.67 1071.28L869.56 1085.78L844.44 1071.28L844.44 1042.28zM894.67 1071.28L919.79 1085.78L919.79 1114.78L894.67 1129.28L869.56 1114.78L869.56 1085.78zM919.79 70.78L944.9 85.28L944.9 114.28L919.79 128.78L894.67 114.28L894.67 85.28zM919.79 244.78L944.9 259.28L944.9 288.28L919.79 302.78L894.67 288.28L894.67 259.28zM919.79 418.78L944.9 433.28L944.9 462.28L919.79 476.78L894.67 462.28L894.67 433.28zM944.9 462.28L970.02 476.78L970.02 505.78L944.9 520.28L919.79 505.78L919.79 476.78zM944.9 549.28L970.02 563.78L970.02 592.78L944.9 607.28L919.79 592.78L919.79 563.78zM919.79 592.78L944.9 607.28L944.9 636.28L919.79 650.78L894.67 636.28L894.67 607.28zM944.9 984.28L970.02 998.78L970.02 1027.78L944.9 1042.28L919.79 1027.78L919.79 998.78zM919.79 1027.78L944.9 1042.28L944.9 1071.28L919.79 1085.78L894.67 1071.28L894.67 1042.28zM995.13 27.28L1020.25 41.78L1020.25 70.78L995.13 85.28L970.02 70.78L970.02 41.78zM995.13 201.28L1020.25 215.78L1020.25 244.78L995.13 259.28L970.02 244.78L970.02 215.78zM970.02 331.78L995.13 346.28L995.13 375.28L970.02 389.78L944.9 375.28L944.9 346.28zM995.13 375.28L1020.25 389.78L1020.25 418.78L995.13 433.28L970.02 418.78L970.02 389.78zM970.02 418.78L995.13 433.28L995.13 462.28L970.02 476.78L944.9 462.28L944.9 433.28zM995.13 462.28L1020.25 476.78L1020.25 505.78L995.13 520.28L970.02 505.78L970.02 476.78zM970.02 592.78L995.13 607.28L995.13 636.28L970.02 650.78L944.9 636.28L944.9 607.28zM970.02 679.78L995.13 694.28L995.13 723.28L970.02 737.78L944.9 723.28L944.9 694.28zM970.02 766.78L995.13 781.28L995.13 810.28L970.02 824.78L944.9 810.28L944.9 781.28zM995.13 984.28L1020.25 998.78L1020.25 1027.78L995.13 1042.28L970.02 1027.78L970.02 998.78zM1045.36 27.28L1070.48 41.78L1070.48 70.78L1045.36 85.28L1020.25 70.78L1020.25 41.78zM1020.25 157.78L1045.36 172.28L1045.36 201.28L1020.25 215.78L995.13 201.28L995.13 172.28zM1045.36 201.28L1070.48 215.78L1070.48 244.78L1045.36 259.28L1020.25 244.78L1020.25 215.78zM1020.25 244.78L1045.36 259.28L1045.36 288.28L1020.25 302.78L995.13 288.28L995.13 259.28zM1020.25 331.78L1045.36 346.28L1045.36 375.28L1020.25 389.78L995.13 375.28L995.13 346.28zM1045.36 375.28L1070.48 389.78L1070.48 418.78L1045.36 433.28L1020.25 418.78L1020.25 389.78zM1045.36 462.28L1070.48 476.78L1070.48 505.78L1045.36 520.28L1020.25 505.78L1020.25 476.78zM1045.36 549.28L1070.48 563.78L1070.48 592.78L1045.36 607.28L1020.25 592.78L1020.25 563.78zM1045.36 810.28L1070.48 824.78L1070.48 853.78L1045.36 868.28L1020.25 853.78L1020.25 824.78zM1020.25 853.78L1045.36 868.28L1045.36 897.28L1020.25 911.78L995.13 897.28L995.13 868.28zM1045.36 897.28L1070.48 911.78L1070.48 940.78L1045.36 955.28L1020.25 940.78L1020.25 911.78zM1020.25 1027.78L1045.36 1042.28L1045.36 1071.28L1020.25 1085.78L995.13 1071.28L995.13 1042.28zM1070.48 -16.22L1095.59 -1.72L1095.59 27.28L1070.48 41.78L1045.36 27.28L1045.36 -1.72zM1070.48 70.78L1095.59 85.28L1095.59 114.28L1070.48 128.78L1045.36 114.28L1045.36 85.28zM1095.59 114.28L1120.71 128.78L1120.71 157.78L1095.59 172.28L1070.48 157.78L1070.48 128.78zM1070.48 331.78L1095.59 346.28L1095.59 375.28L1070.48 389.78L1045.36 375.28L1045.36 346.28zM1095.59 375.28L1120.71 389.78L1120.71 418.78L1095.59 433.28L1070.48 418.78L1070.48 389.78zM1070.48 418.78L1095.59 433.28L1095.59 462.28L1070.48 476.78L1045.36 462.28L1045.36 433.28zM1070.48 766.78L1095.59 781.28L1095.59 810.28L1070.48 824.78L1045.36 810.28L1045.36 781.28zM1070.48 853.78L1095.59 868.28L1095.59 897.28L1070.48 911.78L1045.36 897.28L1045.36 868.28zM1070.48 940.78L1095.59 955.28L1095.59 984.28L1070.48 998.78L1045.36 984.28L1045.36 955.28zM1095.59 984.28L1120.71 998.78L1120.71 1027.78L1095.59 1042.28L1070.48 1027.78L1070.48 998.78zM1095.59 1071.28L1120.71 1085.78L1120.71 1114.78L1095.59 1129.28L1070.48 1114.78L1070.48 1085.78zM1120.71 70.78L1145.83 85.28L1145.83 114.28L1120.71 128.78L1095.59 114.28L1095.59 85.28zM1120.71 157.78L1145.83 172.28L1145.83 201.28L1120.71 215.78L1095.59 201.28L1095.59 172.28zM1120.71 331.78L1145.83 346.28L1145.83 375.28L1120.71 389.78L1095.59 375.28L1095.59 346.28zM1120.71 418.78L1145.83 433.28L1145.83 462.28L1120.71 476.78L1095.59 462.28L1095.59 433.28zM1145.83 462.28L1170.94 476.78L1170.94 505.78L1145.83 520.28L1120.71 505.78L1120.71 476.78zM1120.71 592.78L1145.83 607.28L1145.83 636.28L1120.71 650.78L1095.59 636.28L1095.59 607.28zM1145.83 723.28L1170.94 737.78L1170.94 766.78L1145.83 781.28L1120.71 766.78L1120.71 737.78zM1120.71 766.78L1145.83 781.28L1145.83 810.28L1120.71 824.78L1095.59 810.28L1095.59 781.28zM1120.71 853.78L1145.83 868.28L1145.83 897.28L1120.71 911.78L1095.59 897.28L1095.59 868.28zM1145.83 897.28L1170.94 911.78L1170.94 940.78L1145.83 955.28L1120.71 940.78L1120.71 911.78zM1120.71 940.78L1145.83 955.28L1145.83 984.28L1120.71 998.78L1095.59 984.28L1095.59 955.28zM1170.94 244.78L1196.06 259.28L1196.06 288.28L1170.94 302.78L1145.83 288.28L1145.83 259.28zM1196.06 288.28L1221.17 302.78L1221.17 331.78L1196.06 346.28L1170.94 331.78L1170.94 302.78zM1196.06 375.28L1221.17 389.78L1221.17 418.78L1196.06 433.28L1170.94 418.78L1170.94 389.78zM1170.94 418.78L1196.06 433.28L1196.06 462.28L1170.94 476.78L1145.83 462.28L1145.83 433.28zM1196.06 549.28L1221.17 563.78L1221.17 592.78L1196.06 607.28L1170.94 592.78L1170.94 563.78zM1196.06 897.28L1221.17 911.78L1221.17 940.78L1196.06 955.28L1170.94 940.78L1170.94 911.78zM1196.06 984.28L1221.17 998.78L1221.17 1027.78L1196.06 1042.28L1170.94 1027.78L1170.94 998.78zM1221.17 70.78L1246.29 85.28L1246.29 114.28L1221.17 128.78L1196.06 114.28L1196.06 85.28zM1246.29 114.28L1271.4 128.78L1271.4 157.78L1246.29 172.28L1221.17 157.78L1221.17 128.78zM1221.17 157.78L1246.29 172.28L1246.29 201.28L1221.17 215.78L1196.06 201.28L1196.06 172.28zM1246.29 201.28L1271.4 215.78L1271.4 244.78L1246.29 259.28L1221.17 244.78L1221.17 215.78zM1246.29 288.28L1271.4 302.78L1271.4 331.78L1246.29 346.28L1221.17 331.78L1221.17 302.78zM1246.29 462.28L1271.4 476.78L1271.4 505.78L1246.29 520.28L1221.17 505.78L1221.17 476.78zM1221.17 679.78L1246.29 694.28L1246.29 723.28L1221.17 737.78L1196.06 723.28L1196.06 694.28zM1221.17 853.78L1246.29 868.28L1246.29 897.28L1221.17 911.78L1196.06 897.28L1196.06 868.28zM1221.17 940.78L1246.29 955.28L1246.29 984.28L1221.17 998.78L1196.06 984.28L1196.06 955.28zM1246.29 984.28L1271.4 998.78L1271.4 1027.78L1246.29 1042.28L1221.17 1027.78L1221.17 998.78zM1246.29 1071.28L1271.4 1085.78L1271.4 1114.78L1246.29 1129.28L1221.17 1114.78L1221.17 1085.78zM1271.4 -16.22L1296.52 -1.72L1296.52 27.28L1271.4 41.78L1246.29 27.28L1246.29 -1.72zM1296.52 27.28L1321.63 41.78L1321.63 70.78L1296.52 85.28L1271.4 70.78L1271.4 41.78zM1271.4 70.78L1296.52 85.28L1296.52 114.28L1271.4 128.78L1246.29 114.28L1246.29 85.28zM1296.52 201.28L1321.63 215.78L1321.63 244.78L1296.52 259.28L1271.4 244.78L1271.4 215.78zM1271.4 418.78L1296.52 433.28L1296.52 462.28L1271.4 476.78L1246.29 462.28L1246.29 433.28zM1296.52 462.28L1321.63 476.78L1321.63 505.78L1296.52 520.28L1271.4 505.78L1271.4 476.78zM1296.52 723.28L1321.63 737.78L1321.63 766.78L1296.52 781.28L1271.4 766.78L1271.4 737.78zM1271.4 853.78L1296.52 868.28L1296.52 897.28L1271.4 911.78L1246.29 897.28L1246.29 868.28zM1271.4 940.78L1296.52 955.28L1296.52 984.28L1271.4 998.78L1246.29 984.28L1246.29 955.28zM1296.52 1071.28L1321.63 1085.78L1321.63 1114.78L1296.52 1129.28L1271.4 1114.78L1271.4 1085.78zM1321.63 -16.22L1346.75 -1.72L1346.75 27.28L1321.63 41.78L1296.52 27.28L1296.52 -1.72zM1346.75 27.28L1371.86 41.78L1371.86 70.78L1346.75 85.28L1321.63 70.78L1321.63 41.78zM1321.63 70.78L1346.75 85.28L1346.75 114.28L1321.63 128.78L1296.52 114.28L1296.52 85.28zM1321.63 157.78L1346.75 172.28L1346.75 201.28L1321.63 215.78L1296.52 201.28L1296.52 172.28zM1346.75 201.28L1371.86 215.78L1371.86 244.78L1346.75 259.28L1321.63 244.78L1321.63 215.78zM1321.63 331.78L1346.75 346.28L1346.75 375.28L1321.63 389.78L1296.52 375.28L1296.52 346.28zM1321.63 418.78L1346.75 433.28L1346.75 462.28L1321.63 476.78L1296.52 462.28L1296.52 433.28zM1346.75 723.28L1371.86 737.78L1371.86 766.78L1346.75 781.28L1321.63 766.78L1321.63 737.78zM1346.75 810.28L1371.86 824.78L1371.86 853.78L1346.75 868.28L1321.63 853.78L1321.63 824.78zM1321.63 853.78L1346.75 868.28L1346.75 897.28L1321.63 911.78L1296.52 897.28L1296.52 868.28zM1321.63 940.78L1346.75 955.28L1346.75 984.28L1321.63 998.78L1296.52 984.28L1296.52 955.28zM1346.75 984.28L1371.86 998.78L1371.86 1027.78L1346.75 1042.28L1321.63 1027.78L1321.63 998.78zM1321.63 1027.78L1346.75 1042.28L1346.75 1071.28L1321.63 1085.78L1296.52 1071.28L1296.52 1042.28zM1396.98 27.28L1422.1 41.78L1422.1 70.78L1396.98 85.28L1371.86 70.78L1371.86 41.78zM1371.86 70.78L1396.98 85.28L1396.98 114.28L1371.86 128.78L1346.75 114.28L1346.75 85.28zM1396.98 201.28L1422.1 215.78L1422.1 244.78L1396.98 259.28L1371.86 244.78L1371.86 215.78zM1371.86 244.78L1396.98 259.28L1396.98 288.28L1371.86 302.78L1346.75 288.28L1346.75 259.28zM1396.98 288.28L1422.1 302.78L1422.1 331.78L1396.98 346.28L1371.86 331.78L1371.86 302.78zM1371.86 331.78L1396.98 346.28L1396.98 375.28L1371.86 389.78L1346.75 375.28L1346.75 346.28zM1371.86 679.78L1396.98 694.28L1396.98 723.28L1371.86 737.78L1346.75 723.28L1346.75 694.28zM1396.98 810.28L1422.1 824.78L1422.1 853.78L1396.98 868.28L1371.86 853.78L1371.86 824.78zM1396.98 984.28L1422.1 998.78L1422.1 1027.78L1396.98 1042.28L1371.86 1027.78L1371.86 998.78zM1371.86 1027.78L1396.98 1042.28L1396.98 1071.28L1371.86 1085.78L1346.75 1071.28L1346.75 1042.28zM1396.98 1071.28L1422.1 1085.78L1422.1 1114.78L1396.98 1129.28L1371.86 1114.78L1371.86 1085.78zM1422.1 -16.22L1447.21 -1.72L1447.21 27.28L1422.1 41.78L1396.98 27.28L1396.98 -1.72zM1447.21 114.28L1472.33 128.78L1472.33 157.78L1447.21 172.28L1422.1 157.78L1422.1 128.78zM1422.1 157.78L1447.21 172.28L1447.21 201.28L1422.1 215.78L1396.98 201.28L1396.98 172.28zM1447.21 201.28L1472.33 215.78L1472.33 244.78L1447.21 259.28L1422.1 244.78L1422.1 215.78zM1447.21 288.28L1472.33 302.78L1472.33 331.78L1447.21 346.28L1422.1 331.78L1422.1 302.78zM1422.1 331.78L1447.21 346.28L1447.21 375.28L1422.1 389.78L1396.98 375.28L1396.98 346.28zM1447.21 375.28L1472.33 389.78L1472.33 418.78L1447.21 433.28L1422.1 418.78L1422.1 389.78zM1422.1 418.78L1447.21 433.28L1447.21 462.28L1422.1 476.78L1396.98 462.28L1396.98 433.28zM1422.1 505.78L1447.21 520.28L1447.21 549.28L1422.1 563.78L1396.98 549.28L1396.98 520.28zM1422.1 592.78L1447.21 607.28L1447.21 636.28L1422.1 650.78L1396.98 636.28L1396.98 607.28zM1422.1 679.78L1447.21 694.28L1447.21 723.28L1422.1 737.78L1396.98 723.28L1396.98 694.28zM1447.21 723.28L1472.33 737.78L1472.33 766.78L1447.21 781.28L1422.1 766.78L1422.1 737.78zM1447.21 810.28L1472.33 824.78L1472.33 853.78L1447.21 868.28L1422.1 853.78L1422.1 824.78zM1447.21 984.28L1472.33 998.78L1472.33 1027.78L1447.21 1042.28L1422.1 1027.78L1422.1 998.78zM1447.21 1071.28L1472.33 1085.78L1472.33 1114.78L1447.21 1129.28L1422.1 1114.78L1422.1 1085.78zM1472.33 -16.22L1497.44 -1.72L1497.44 27.28L1472.33 41.78L1447.21 27.28L1447.21 -1.72zM1497.44 27.28L1522.56 41.78L1522.56 70.78L1497.44 85.28L1472.33 70.78L1472.33 41.78zM1472.33 70.78L1497.44 85.28L1497.44 114.28L1472.33 128.78L1447.21 114.28L1447.21 85.28zM1497.44 114.28L1522.56 128.78L1522.56 157.78L1497.44 172.28L1472.33 157.78L1472.33 128.78zM1472.33 157.78L1497.44 172.28L1497.44 201.28L1472.33 215.78L1447.21 201.28L1447.21 172.28zM1497.44 201.28L1522.56 215.78L1522.56 244.78L1497.44 259.28L1472.33 244.78L1472.33 215.78zM1497.44 462.28L1522.56 476.78L1522.56 505.78L1497.44 520.28L1472.33 505.78L1472.33 476.78zM1497.44 549.28L1522.56 563.78L1522.56 592.78L1497.44 607.28L1472.33 592.78L1472.33 563.78zM1497.44 636.28L1522.56 650.78L1522.56 679.78L1497.44 694.28L1472.33 679.78L1472.33 650.78zM1472.33 679.78L1497.44 694.28L1497.44 723.28L1472.33 737.78L1447.21 723.28L1447.21 694.28zM1497.44 723.28L1522.56 737.78L1522.56 766.78L1497.44 781.28L1472.33 766.78L1472.33 737.78zM1472.33 766.78L1497.44 781.28L1497.44 810.28L1472.33 824.78L1447.21 810.28L1447.21 781.28zM1472.33 853.78L1497.44 868.28L1497.44 897.28L1472.33 911.78L1447.21 897.28L1447.21 868.28zM1472.33 1027.78L1497.44 1042.28L1497.44 1071.28L1472.33 1085.78L1447.21 1071.28L1447.21 1042.28zM1497.44 1071.28L1522.56 1085.78L1522.56 1114.78L1497.44 1129.28L1472.33 1114.78L1472.33 1085.78zM1522.56 -16.22L1547.67 -1.72L1547.67 27.28L1522.56 41.78L1497.44 27.28L1497.44 -1.72zM1522.56 157.78L1547.67 172.28L1547.67 201.28L1522.56 215.78L1497.44 201.28L1497.44 172.28zM1547.67 201.28L1572.79 215.78L1572.79 244.78L1547.67 259.28L1522.56 244.78L1522.56 215.78zM1547.67 375.28L1572.79 389.78L1572.79 418.78L1547.67 433.28L1522.56 418.78L1522.56 389.78zM1522.56 418.78L1547.67 433.28L1547.67 462.28L1522.56 476.78L1497.44 462.28L1497.44 433.28zM1547.67 462.28L1572.79 476.78L1572.79 505.78L1547.67 520.28L1522.56 505.78L1522.56 476.78zM1547.67 549.28L1572.79 563.78L1572.79 592.78L1547.67 607.28L1522.56 592.78L1522.56 563.78zM1522.56 679.78L1547.67 694.28L1547.67 723.28L1522.56 737.78L1497.44 723.28L1497.44 694.28zM1597.9 27.28L1623.02 41.78L1623.02 70.78L1597.9 85.28L1572.79 70.78L1572.79 41.78zM1572.79 70.78L1597.9 85.28L1597.9 114.28L1572.79 128.78L1547.67 114.28L1547.67 85.28zM1572.79 157.78L1597.9 172.28L1597.9 201.28L1572.79 215.78L1547.67 201.28L1547.67 172.28zM1597.9 201.28L1623.02 215.78L1623.02 244.78L1597.9 259.28L1572.79 244.78L1572.79 215.78zM1572.79 244.78L1597.9 259.28L1597.9 288.28L1572.79 302.78L1547.67 288.28L1547.67 259.28zM1572.79 331.78L1597.9 346.28L1597.9 375.28L1572.79 389.78L1547.67 375.28L1547.67 346.28zM1572.79 592.78L1597.9 607.28L1597.9 636.28L1572.79 650.78L1547.67 636.28L1547.67 607.28zM1572.79 679.78L1597.9 694.28L1597.9 723.28L1572.79 737.78L1547.67 723.28L1547.67 694.28zM1597.9 810.28L1623.02 824.78L1623.02 853.78L1597.9 868.28L1572.79 853.78L1572.79 824.78zM1597.9 897.28L1623.02 911.78L1623.02 940.78L1597.9 955.28L1572.79 940.78L1572.79 911.78zM1572.79 940.78L1597.9 955.28L1597.9 984.28L1572.79 998.78L1547.67 984.28L1547.67 955.28zM1572.79 1027.78L1597.9 1042.28L1597.9 1071.28L1572.79 1085.78L1547.67 1071.28L1547.67 1042.28zM1623.02 -16.22L1648.13 -1.72L1648.13 27.28L1623.02 41.78L1597.9 27.28L1597.9 -1.72zM1648.13 27.28L1673.25 41.78L1673.25 70.78L1648.13 85.28L1623.02 70.78L1623.02 41.78zM1648.13 114.28L1673.25 128.78L1673.25 157.78L1648.13 172.28L1623.02 157.78L1623.02 128.78zM1623.02 157.78L1648.13 172.28L1648.13 201.28L1623.02 215.78L1597.9 201.28L1597.9 172.28zM1623.02 244.78L1648.13 259.28L1648.13 288.28L1623.02 302.78L1597.9 288.28L1597.9 259.28zM1648.13 375.28L1673.25 389.78L1673.25 418.78L1648.13 433.28L1623.02 418.78L1623.02 389.78zM1623.02 418.78L1648.13 433.28L1648.13 462.28L1623.02 476.78L1597.9 462.28L1597.9 433.28zM1648.13 462.28L1673.25 476.78L1673.25 505.78L1648.13 520.28L1623.02 505.78L1623.02 476.78zM1623.02 505.78L1648.13 520.28L1648.13 549.28L1623.02 563.78L1597.9 549.28L1597.9 520.28zM1623.02 853.78L1648.13 868.28L1648.13 897.28L1623.02 911.78L1597.9 897.28L1597.9 868.28zM1648.13 897.28L1673.25 911.78L1673.25 940.78L1648.13 955.28L1623.02 940.78L1623.02 911.78zM1648.13 1071.28L1673.25 1085.78L1673.25 1114.78L1648.13 1129.28L1623.02 1114.78L1623.02 1085.78zM1698.37 114.28L1723.48 128.78L1723.48 157.78L1698.37 172.28L1673.25 157.78L1673.25 128.78zM1673.25 157.78L1698.37 172.28L1698.37 201.28L1673.25 215.78L1648.13 201.28L1648.13 172.28zM1698.37 201.28L1723.48 215.78L1723.48 244.78L1698.37 259.28L1673.25 244.78L1673.25 215.78zM1698.37 288.28L1723.48 302.78L1723.48 331.78L1698.37 346.28L1673.25 331.78L1673.25 302.78zM1698.37 375.28L1723.48 389.78L1723.48 418.78L1698.37 433.28L1673.25 418.78L1673.25 389.78zM1698.37 462.28L1723.48 476.78L1723.48 505.78L1698.37 520.28L1673.25 505.78L1673.25 476.78zM1698.37 549.28L1723.48 563.78L1723.48 592.78L1698.37 607.28L1673.25 592.78L1673.25 563.78zM1698.37 636.28L1723.48 650.78L1723.48 679.78L1698.37 694.28L1673.25 679.78L1673.25 650.78zM1673.25 679.78L1698.37 694.28L1698.37 723.28L1673.25 737.78L1648.13 723.28L1648.13 694.28zM1698.37 723.28L1723.48 737.78L1723.48 766.78L1698.37 781.28L1673.25 766.78L1673.25 737.78zM1698.37 810.28L1723.48 824.78L1723.48 853.78L1698.37 868.28L1673.25 853.78L1673.25 824.78zM1673.25 853.78L1698.37 868.28L1698.37 897.28L1673.25 911.78L1648.13 897.28L1648.13 868.28zM1698.37 1071.28L1723.48 1085.78L1723.48 1114.78L1698.37 1129.28L1673.25 1114.78L1673.25 1085.78zM1723.48 -16.22L1748.6 -1.72L1748.6 27.28L1723.48 41.78L1698.37 27.28L1698.37 -1.72zM1723.48 70.78L1748.6 85.28L1748.6 114.28L1723.48 128.78L1698.37 114.28L1698.37 85.28zM1748.6 114.28L1773.71 128.78L1773.71 157.78L1748.6 172.28L1723.48 157.78L1723.48 128.78zM1723.48 505.78L1748.6 520.28L1748.6 549.28L1723.48 563.78L1698.37 549.28L1698.37 520.28zM1723.48 592.78L1748.6 607.28L1748.6 636.28L1723.48 650.78L1698.37 636.28L1698.37 607.28zM1723.48 679.78L1748.6 694.28L1748.6 723.28L1723.48 737.78L1698.37 723.28L1698.37 694.28zM1748.6 723.28L1773.71 737.78L1773.71 766.78L1748.6 781.28L1723.48 766.78L1723.48 737.78zM1723.48 766.78L1748.6 781.28L1748.6 810.28L1723.48 824.78L1698.37 810.28L1698.37 781.28zM1723.48 853.78L1748.6 868.28L1748.6 897.28L1723.48 911.78L1698.37 897.28L1698.37 868.28zM1748.6 897.28L1773.71 911.78L1773.71 940.78L1748.6 955.28L1723.48 940.78L1723.48 911.78zM1723.48 1027.78L1748.6 1042.28L1748.6 1071.28L1723.48 1085.78L1698.37 1071.28L1698.37 1042.28zM1748.6 1071.28L1773.71 1085.78L1773.71 1114.78L1748.6 1129.28L1723.48 1114.78L1723.48 1085.78zM1773.71 -16.22L1798.83 -1.72L1798.83 27.28L1773.71 41.78L1748.6 27.28L1748.6 -1.72zM1773.71 70.78L1798.83 85.28L1798.83 114.28L1773.71 128.78L1748.6 114.28L1748.6 85.28zM1798.83 114.28L1823.94 128.78L1823.94 157.78L1798.83 172.28L1773.71 157.78L1773.71 128.78zM1773.71 157.78L1798.83 172.28L1798.83 201.28L1773.71 215.78L1748.6 201.28L1748.6 172.28zM1798.83 201.28L1823.94 215.78L1823.94 244.78L1798.83 259.28L1773.71 244.78L1773.71 215.78zM1773.71 418.78L1798.83 433.28L1798.83 462.28L1773.71 476.78L1748.6 462.28L1748.6 433.28zM1798.83 549.28L1823.94 563.78L1823.94 592.78L1798.83 607.28L1773.71 592.78L1773.71 563.78zM1773.71 592.78L1798.83 607.28L1798.83 636.28L1773.71 650.78L1748.6 636.28L1748.6 607.28zM1798.83 636.28L1823.94 650.78L1823.94 679.78L1798.83 694.28L1773.71 679.78L1773.71 650.78zM1798.83 723.28L1823.94 737.78L1823.94 766.78L1798.83 781.28L1773.71 766.78L1773.71 737.78zM1773.71 853.78L1798.83 868.28L1798.83 897.28L1773.71 911.78L1748.6 897.28L1748.6 868.28zM1798.83 897.28L1823.94 911.78L1823.94 940.78L1798.83 955.28L1773.71 940.78L1773.71 911.78zM1773.71 940.78L1798.83 955.28L1798.83 984.28L1773.71 998.78L1748.6 984.28L1748.6 955.28zM1798.83 984.28L1823.94 998.78L1823.94 1027.78L1798.83 1042.28L1773.71 1027.78L1773.71 998.78zM1773.71 1027.78L1798.83 1042.28L1798.83 1071.28L1773.71 1085.78L1748.6 1071.28L1748.6 1042.28zM1849.06 27.28L1874.17 41.78L1874.17 70.78L1849.06 85.28L1823.94 70.78L1823.94 41.78zM1823.94 157.78L1849.06 172.28L1849.06 201.28L1823.94 215.78L1798.83 201.28L1798.83 172.28zM1823.94 244.78L1849.06 259.28L1849.06 288.28L1823.94 302.78L1798.83 288.28L1798.83 259.28zM1849.06 375.28L1874.17 389.78L1874.17 418.78L1849.06 433.28L1823.94 418.78L1823.94 389.78zM1823.94 418.78L1849.06 433.28L1849.06 462.28L1823.94 476.78L1798.83 462.28L1798.83 433.28zM1849.06 462.28L1874.17 476.78L1874.17 505.78L1849.06 520.28L1823.94 505.78L1823.94 476.78zM1849.06 549.28L1874.17 563.78L1874.17 592.78L1849.06 607.28L1823.94 592.78L1823.94 563.78zM1849.06 636.28L1874.17 650.78L1874.17 679.78L1849.06 694.28L1823.94 679.78L1823.94 650.78zM1823.94 679.78L1849.06 694.28L1849.06 723.28L1823.94 737.78L1798.83 723.28L1798.83 694.28zM1823.94 766.78L1849.06 781.28L1849.06 810.28L1823.94 824.78L1798.83 810.28L1798.83 781.28zM1899.29 27.28L1924.4 41.78L1924.4 70.78L1899.29 85.28L1874.17 70.78L1874.17 41.78zM1874.17 244.78L1899.29 259.28L1899.29 288.28L1874.17 302.78L1849.06 288.28L1849.06 259.28zM1874.17 331.78L1899.29 346.28L1899.29 375.28L1874.17 389.78L1849.06 375.28L1849.06 346.28zM1899.29 375.28L1924.4 389.78L1924.4 418.78L1899.29 433.28L1874.17 418.78L1874.17 389.78zM1874.17 418.78L1899.29 433.28L1899.29 462.28L1874.17 476.78L1849.06 462.28L1849.06 433.28zM1899.29 462.28L1924.4 476.78L1924.4 505.78L1899.29 520.28L1874.17 505.78L1874.17 476.78zM1874.17 505.78L1899.29 520.28L1899.29 549.28L1874.17 563.78L1849.06 549.28L1849.06 520.28zM1874.17 592.78L1899.29 607.28L1899.29 636.28L1874.17 650.78L1849.06 636.28L1849.06 607.28zM1899.29 636.28L1924.4 650.78L1924.4 679.78L1899.29 694.28L1874.17 679.78L1874.17 650.78zM1874.17 679.78L1899.29 694.28L1899.29 723.28L1874.17 737.78L1849.06 723.28L1849.06 694.28zM1899.29 723.28L1924.4 737.78L1924.4 766.78L1899.29 781.28L1874.17 766.78L1874.17 737.78zM1899.29 810.28L1924.4 824.78L1924.4 853.78L1899.29 868.28L1874.17 853.78L1874.17 824.78zM1899.29 984.28L1924.4 998.78L1924.4 1027.78L1899.29 1042.28L1874.17 1027.78L1874.17 998.78zM1924.4 -16.22L1949.52 -1.72L1949.52 27.28L1924.4 41.78L1899.29 27.28L1899.29 -1.72zM1949.52 114.28L1974.64 128.78L1974.64 157.78L1949.52 172.28L1924.4 157.78L1924.4 128.78zM1924.4 244.78L1949.52 259.28L1949.52 288.28L1924.4 302.78L1899.29 288.28L1899.29 259.28zM1924.4 331.78L1949.52 346.28L1949.52 375.28L1924.4 389.78L1899.29 375.28L1899.29 346.28zM1949.52 375.28L1974.64 389.78L1974.64 418.78L1949.52 433.28L1924.4 418.78L1924.4 389.78zM1949.52 462.28L1974.64 476.78L1974.64 505.78L1949.52 520.28L1924.4 505.78L1924.4 476.78zM1949.52 549.28L1974.64 563.78L1974.64 592.78L1949.52 607.28L1924.4 592.78L1924.4 563.78zM1949.52 636.28L1974.64 650.78L1974.64 679.78L1949.52 694.28L1924.4 679.78L1924.4 650.78zM1924.4 679.78L1949.52 694.28L1949.52 723.28L1924.4 737.78L1899.29 723.28L1899.29 694.28zM1949.52 723.28L1974.64 737.78L1974.64 766.78L1949.52 781.28L1924.4 766.78L1924.4 737.78zM1924.4 766.78L1949.52 781.28L1949.52 810.28L1924.4 824.78L1899.29 810.28L1899.29 781.28zM1924.4 853.78L1949.52 868.28L1949.52 897.28L1924.4 911.78L1899.29 897.28L1899.29 868.28zM1924.4 940.78L1949.52 955.28L1949.52 984.28L1924.4 998.78L1899.29 984.28L1899.29 955.28zM1949.52 1071.28L1974.64 1085.78L1974.64 1114.78L1949.52 1129.28L1924.4 1114.78L1924.4 1085.78z" stroke="rgba(128, 128, 128, 1)" stroke-width="2"></path></g><defs><mask id="SvgjsMask1011"><rect width="1920" height="1080" fill="#ffffff"></rect></mask></defs></svg>